<?xml version="1.0" encoding="UTF-8"?>
<svg version="1.1" xmlns="http://www.w3.org/2000/svg" width="237" height="220">
<path d="M0 0 C1.95196289 -0.03673828 1.95196289 -0.03673828 3.94335938 -0.07421875 C5.18794922 -0.07808594 6.43253906 -0.08195312 7.71484375 -0.0859375 C9.43175415 -0.09826416 9.43175415 -0.09826416 11.18334961 -0.11083984 C14.0625 0.375 14.0625 0.375 15.66822815 2.07723999 C17.22276495 4.63911664 17.74651152 6.68152887 18.25 9.625 C18.40855469 10.51703125 18.56710938 11.4090625 18.73046875 12.328125 C18.84003906 13.00359375 18.94960938 13.6790625 19.0625 14.375 C19.76395236 14.37315641 20.46540472 14.37131283 21.18811321 14.36941338 C38.25579374 14.32524518 55.32345975 14.2921487 72.39118481 14.27137566 C80.64500671 14.26106297 88.89879047 14.24700277 97.15258789 14.22412109 C104.34657308 14.204187 111.54053063 14.19128351 118.73454267 14.18682301 C122.54373266 14.18421566 126.35284362 14.17808741 130.16200829 14.16353989 C133.74802289 14.14995567 137.33392595 14.14577905 140.91996384 14.14878464 C142.86205722 14.14797289 144.80413848 14.13721562 146.74620056 14.12615967 C148.4856192 14.13028366 148.4856192 14.13028366 150.26017761 14.13449097 C151.26585376 14.13264738 152.2715299 14.13080379 153.30768108 14.12890434 C157.85154782 14.53482063 160.35142403 15.56783268 163.375 19 C166.55502067 25.36004135 165.10312929 31.42308506 163 37.9375 C162.77812012 38.65728027 162.55624023 39.37706055 162.32763672 40.11865234 C161.8408325 41.69619081 161.34943069 43.27231614 160.85400391 44.84716797 C159.73239049 48.42927324 158.6485395 52.02252953 157.56225586 55.61547852 C156.67923502 58.52725389 155.78492011 61.43542025 154.890625 64.34375 C153.62561954 68.47736528 152.41426857 72.6225673 151.234375 76.78125 C150.93321777 77.82265137 150.63206055 78.86405273 150.32177734 79.93701172 C149.74649494 81.92969338 149.18362976 83.92601605 148.63525391 85.92626953 C147.06772523 91.29531859 145.6485025 94.83061321 141.0625 98.375 C137.1346714 99.6842762 133.37291188 99.55256876 129.27661133 99.58032227 C128.37884476 99.59022186 127.48107819 99.60012146 126.55610657 99.61032104 C123.58560838 99.64193456 120.6150942 99.66669295 117.64453125 99.69140625 C115.58615196 99.7119759 113.52777689 99.73297238 111.46940613 99.75437927 C106.04923928 99.80959878 100.62903432 99.85900863 95.20880127 99.90722656 C89.67887984 99.95744243 84.14901383 100.01312806 78.61914062 100.06835938 C67.76697441 100.17593949 56.9147601 100.27738483 46.0625 100.375 C47.58115214 104.67388613 47.58115214 104.67388613 50.0625 108.375 C52.78503562 108.48421436 55.4831353 108.5292299 58.20654297 108.53271484 C59.06018433 108.53779556 59.91382568 108.54287628 60.79333496 108.54811096 C62.65347124 108.55883879 64.51362063 108.56744944 66.37377548 108.57423019 C69.3151814 108.58597942 72.25643783 108.60542156 75.19778442 108.62734985 C83.56295826 108.68910154 91.92811791 108.74304876 100.29345703 108.77636719 C105.40404285 108.79727447 110.51435843 108.8325475 115.62479019 108.87712479 C117.57603912 108.8913186 119.52733589 108.90001481 121.47863388 108.90317917 C124.20593416 108.90806992 126.93251339 108.93118033 129.65966797 108.95849609 C130.87543015 108.95398689 130.87543015 108.95398689 132.11575317 108.9493866 C137.51805382 109.03002942 137.51805382 109.03002942 140.10720825 110.67056274 C141.72893673 113.5640604 140.70933399 116.25843625 140.0625 119.375 C136.5975 119.87 136.5975 119.87 133.0625 120.375 C133.3925 121.365 133.7225 122.355 134.0625 123.375 C134.56725778 129.5330449 134.09556159 132.42009577 130.0625 137.375 C129.65 137.9525 129.2375 138.53 128.8125 139.125 C125.82393245 141.25969111 122.66816037 142.11101415 119.0625 142.375 C113.45426274 141.39562033 109.68545725 138.76646333 106.0625 134.375 C105.12011302 131.54783905 104.92784353 129.74323877 104.9375 126.8125 C104.93492187 126.02746094 104.93234375 125.24242187 104.9296875 124.43359375 C105.0625 122.375 105.0625 122.375 106.0625 120.375 C96.1625 120.375 86.2625 120.375 76.0625 120.375 C76.5575 124.335 76.5575 124.335 77.0625 128.375 C75.47736533 133.5707192 73.36062379 137.03201483 69.0625 140.375 C64.77594904 142.3513256 61.94208842 142.62844073 57.375 141.3125 C52.69584133 138.57563361 49.0487457 135.50228542 47.0625 130.375 C47.0859375 127.796875 47.0859375 127.796875 47.4375 125.125 C47.54835937 124.23296875 47.65921875 123.3409375 47.7734375 122.421875 C47.86882812 121.74640625 47.96421875 121.0709375 48.0625 120.375 C47.134375 120.436875 46.20625 120.49875 45.25 120.5625 C42.0625 120.375 42.0625 120.375 40.49513245 119.24771118 C38.55897446 116.71680053 37.86957471 114.2764542 36.95288086 111.22412109 C36.66908066 110.29348091 36.66908066 110.29348091 36.37954712 109.34403992 C35.75304382 107.28146983 35.14024113 105.21508761 34.52734375 103.1484375 C34.08560199 101.68453037 33.64300386 100.22088142 33.19960022 98.75747681 C32.02614204 94.8764058 30.86416012 90.99198994 29.70458984 87.10675049 C28.562891 83.28793402 27.41099944 79.47220053 26.25976562 75.65625 C18.89424725 51.21650121 18.89424725 51.21650121 15.95261669 41.21505547 C15.04628159 38.13822347 14.13265483 35.06358347 13.21789742 31.98924637 C12.78719545 30.53470092 12.35997186 29.0791205 11.93641472 27.62247849 C11.35243974 25.6149361 10.75679797 23.61120659 10.15844727 21.60791016 C9.82482681 20.47261871 9.49120636 19.33732727 9.1474762 18.16763306 C8.09696071 15.46369883 7.3500724 14.10977193 5.0625 12.375 C2.97754946 11.90621441 2.97754946 11.90621441 0.68359375 11.93359375 C-0.57420898 11.89395508 -0.57420898 11.89395508 -1.85742188 11.85351562 C-2.72947266 11.83998047 -3.60152344 11.82644531 -4.5 11.8125 C-6.23066061 11.77811601 -7.96118373 11.73554038 -9.69140625 11.68359375 C-10.84104858 11.66510376 -10.84104858 11.66510376 -12.01391602 11.64624023 C-13.9375 11.375 -13.9375 11.375 -15.9375 9.375 C-16.1875 5.875 -16.1875 5.875 -15.9375 2.375 C-12.08734696 -1.47515304 -5.1905211 0.00512644 0 0 Z M65.75 41.0625 C64.36039264 45.73663385 64.41489143 49.80710557 66.25 54.25 C68.47858963 56.86282922 69.70256906 57.62834868 73.0625 58.375 C77.10212109 58.43937643 80.10865141 58.01089906 83.5 55.75 C85.6344049 52.50570455 85.99671271 50.2564499 86.0625 46.375 C84.87583694 42.41945647 83.9290413 40.10102109 80.75 37.4375 C74.88397738 35.11837478 69.73759323 35.93559442 65.75 41.0625 Z M102.0625 36.375 C96.23348673 44.20671895 90.76448367 52.22848213 85.38867188 60.37402344 C84.00208439 62.46615728 82.60413257 64.55031075 81.203125 66.6328125 C80.74019043 67.32213867 80.27725586 68.01146484 79.80029297 68.72167969 C78.9050525 70.05411571 78.00828859 71.38552966 77.10986328 72.71582031 C74.99984237 75.33555089 74.99984237 75.33555089 74.0625 78.375 C76.85068879 78.89335949 76.85068879 78.89335949 80.0625 78.375 C82.08294296 76.31983068 83.49355297 74.5559834 85.0625 72.1875 C85.74602539 71.20644287 85.74602539 71.20644287 86.44335938 70.20556641 C88.00699484 67.94414035 89.53553679 65.66133517 91.0625 63.375 C92.30189272 61.54283979 93.54148385 59.71081379 94.78125 57.87890625 C101.61780562 47.75209548 101.61780562 47.75209548 108.0625 37.375 C106.0825 37.045 104.1025 36.715 102.0625 36.375 Z M98.0625 60.375 C95.75308198 63.34425173 95.57949901 66.62713151 95.68359375 70.33984375 C96.39583265 74.16537432 98.16916458 75.79615756 101.0625 78.375 C105.61143714 79.92357434 108.71801274 79.30588323 113.0625 77.375 C115.80154759 75.16396159 116.54126889 73.53852748 116.9375 70.0625 C117.28430692 65.7167969 116.63256979 63.00854695 114.0625 59.375 C109.15047375 55.51555081 102.6780912 56.68252704 98.0625 60.375 Z M56.0625 123.375 C55.64583333 126.875 55.64583333 126.875 56.0625 130.375 C57.99981528 132.73910488 57.99981528 132.73910488 61.5 132.6875 C64.93161819 132.65336668 64.93161819 132.65336668 67 131.1875 C68.44968434 128.71450907 68.48567323 127.19615488 68.0625 124.375 C67.04279682 122.43845052 67.04279682 122.43845052 65.0625 121.375 C60.98455575 120.95021414 59.53173881 121.06217413 56.0625 123.375 Z M114.125 122.5625 C112.67531566 125.03549093 112.63932677 126.55384512 113.0625 129.375 C114.01798981 131.33125978 114.01798981 131.33125978 116.0625 132.375 C119.5625 132.95833333 119.5625 132.95833333 123.0625 132.375 C125.29858998 130.89369332 125.29858998 130.89369332 126.0625 128.375 C125.23882322 124.53925553 125.23882322 124.53925553 123.0625 121.375 C118.38127614 120.9365424 118.38127614 120.9365424 114.125 122.5625 Z " fill="#FB8D0A" transform="translate(26.9375,51.625)"/>
<path d="M0 0 C0.33 0 0.66 0 1 0 C0.22008985 7.17517334 -0.84889214 14.36489288 -5.5 20.0625 C-9.98404288 23.53763323 -14.35390174 23.16851914 -19.78588867 23.20532227 C-20.68365524 23.21522186 -21.58142181 23.22512146 -22.50639343 23.23532104 C-25.47689162 23.26693456 -28.4474058 23.29169295 -31.41796875 23.31640625 C-33.47634804 23.3369759 -35.53472311 23.35797238 -37.59309387 23.37937927 C-43.01326072 23.43459878 -48.43346568 23.48400863 -53.85369873 23.53222656 C-59.38362016 23.58244243 -64.91348617 23.63812806 -70.44335938 23.69335938 C-81.29552559 23.80093949 -92.1477399 23.90238483 -103 24 C-101.48134786 28.29888613 -101.48134786 28.29888613 -99 32 C-96.27746438 32.10921436 -93.5793647 32.1542299 -90.85595703 32.15771484 C-89.575495 32.16533592 -89.575495 32.16533592 -88.26916504 32.17311096 C-86.40902876 32.18383879 -84.54887937 32.19244944 -82.68872452 32.19923019 C-79.7473186 32.21097942 -76.80606217 32.23042156 -73.86471558 32.25234985 C-65.49954174 32.31410154 -57.13438209 32.36804876 -48.76904297 32.40136719 C-43.65845715 32.42227447 -38.54814157 32.4575475 -33.43770981 32.50212479 C-31.48646088 32.5163186 -29.53516411 32.52501481 -27.58386612 32.52817917 C-24.85656584 32.53306992 -22.12998661 32.55618033 -19.40283203 32.58349609 C-18.18706985 32.57898689 -18.18706985 32.57898689 -16.94674683 32.5743866 C-11.54444618 32.65502942 -11.54444618 32.65502942 -8.95529175 34.29556274 C-7.33356327 37.1890604 -8.35316601 39.88343625 -9 43 C-12.465 43.495 -12.465 43.495 -16 44 C-15.67 44.99 -15.34 45.98 -15 47 C-14.49524222 53.1580449 -14.96693841 56.04509577 -19 61 C-19.4125 61.5775 -19.825 62.155 -20.25 62.75 C-23.23856755 64.88469111 -26.39433963 65.73601415 -30 66 C-35.60823726 65.02062033 -39.37704275 62.39146333 -43 58 C-43.94238698 55.17283905 -44.13465647 53.36823877 -44.125 50.4375 C-44.12757813 49.65246094 -44.13015625 48.86742187 -44.1328125 48.05859375 C-44 46 -44 46 -43 44 C-52.9 44 -62.8 44 -73 44 C-72.505 47.96 -72.505 47.96 -72 52 C-73.58513467 57.1957192 -75.70187621 60.65701483 -80 64 C-84.28655096 65.9763256 -87.12041158 66.25344073 -91.6875 64.9375 C-96.36665867 62.20063361 -100.0137543 59.12728542 -102 54 C-101.9765625 51.421875 -101.9765625 51.421875 -101.625 48.75 C-101.51414062 47.85796875 -101.40328125 46.9659375 -101.2890625 46.046875 C-101.19367188 45.37140625 -101.09828125 44.6959375 -101 44 C-101.928125 44.061875 -102.85625 44.12375 -103.8125 44.1875 C-107 44 -107 44 -108.56933594 42.85327148 C-111.78470102 38.6881117 -112.75082909 33.03385782 -114.25 28.0625 C-114.62640625 26.86947266 -115.0028125 25.67644531 -115.390625 24.44726562 C-115.74125 23.30064453 -116.091875 22.15402344 -116.453125 20.97265625 C-116.77442383 19.92343994 -117.09572266 18.87422363 -117.42675781 17.79321289 C-117.99267018 15.03571568 -117.95612133 13.60664337 -117 11 C-116.16142312 13.60258324 -115.32896656 16.20685647 -114.5 18.8125 C-114.26152344 19.55048828 -114.02304688 20.28847656 -113.77734375 21.04882812 C-112.80059864 24.13255196 -112 26.74495809 -112 30 C-111.01 30 -110.02 30 -109 30 C-108.67 29.34 -108.34 28.68 -108 28 C-108 28.66 -108 29.32 -108 30 C-107.01 30 -106.02 30 -105 30 C-105 27.03 -105 24.06 -105 21 C-103.2092807 20.99786247 -103.2092807 20.99786247 -101.38238525 20.99568176 C-90.14030917 20.97902349 -78.8985956 20.93628561 -67.65671158 20.86790943 C-61.87688237 20.83359596 -56.09731871 20.80852264 -50.31738281 20.80444336 C-44.74098696 20.80016981 -39.16519058 20.77178511 -33.58898163 20.72656822 C-31.45993286 20.71356305 -29.33081245 20.70929616 -27.20172882 20.71384621 C-24.22269185 20.71873065 -21.24542158 20.69275521 -18.26660156 20.65942383 C-16.94166687 20.67236229 -16.94166687 20.67236229 -15.58996582 20.68556213 C-10.49074906 20.61714341 -10.49074906 20.61714341 -6.47790527 17.58032227 C-5.25552428 15.44612804 -4.2471436 13.56726428 -3.515625 11.23046875 C-3.19658203 10.23950195 -3.19658203 10.23950195 -2.87109375 9.22851562 C-2.66613281 8.55498047 -2.46117187 7.88144531 -2.25 7.1875 C-1.91935547 6.14819336 -1.91935547 6.14819336 -1.58203125 5.08789062 C-1.04496973 3.39497932 -0.52111292 1.69788842 0 0 Z M-93 47 C-93.41666667 50.5 -93.41666667 50.5 -93 54 C-91.06268472 56.36410488 -91.06268472 56.36410488 -87.5625 56.3125 C-84.13088181 56.27836668 -84.13088181 56.27836668 -82.0625 54.8125 C-80.61281566 52.33950907 -80.57682677 50.82115488 -81 48 C-82.01970318 46.06345052 -82.01970318 46.06345052 -84 45 C-88.07794425 44.57521414 -89.53076119 44.68717413 -93 47 Z M-34.9375 46.1875 C-36.38718434 48.66049093 -36.42317323 50.17884512 -36 53 C-35.04451019 54.95625978 -35.04451019 54.95625978 -33 56 C-29.5 56.58333333 -29.5 56.58333333 -26 56 C-23.76391002 54.51869332 -23.76391002 54.51869332 -23 52 C-23.82367678 48.16425553 -23.82367678 48.16425553 -26 45 C-30.68122386 44.5615424 -30.68122386 44.5615424 -34.9375 46.1875 Z " fill="#F99217" transform="translate(176,128)"/>
<path d="M0 0 C1.95196289 -0.03673828 1.95196289 -0.03673828 3.94335938 -0.07421875 C5.18794922 -0.07808594 6.43253906 -0.08195312 7.71484375 -0.0859375 C9.43175415 -0.09826416 9.43175415 -0.09826416 11.18334961 -0.11083984 C14.0625 0.375 14.0625 0.375 15.66822815 2.07723999 C17.22276495 4.63911664 17.74651152 6.68152887 18.25 9.625 C18.40855469 10.51703125 18.56710938 11.4090625 18.73046875 12.328125 C18.84003906 13.00359375 18.94960938 13.6790625 19.0625 14.375 C19.76395236 14.37315641 20.46540472 14.37131283 21.18811321 14.36941338 C38.25579374 14.32524518 55.32345975 14.2921487 72.39118481 14.27137566 C80.64500671 14.26106297 88.89879047 14.24700277 97.15258789 14.22412109 C104.34657308 14.204187 111.54053063 14.19128351 118.73454267 14.18682301 C122.54373266 14.18421566 126.35284362 14.17808741 130.16200829 14.16353989 C133.74802289 14.14995567 137.33392595 14.14577905 140.91996384 14.14878464 C142.86205722 14.14797289 144.80413848 14.13721562 146.74620056 14.12615967 C148.4856192 14.13028366 148.4856192 14.13028366 150.26017761 14.13449097 C151.26585376 14.13264738 152.2715299 14.13080379 153.30768108 14.12890434 C156.27099618 14.39362555 158.41047022 15.03932088 161.0625 16.375 C162.375 18.5 162.375 18.5 163.0625 20.375 C162.00920738 19.64483563 162.00920738 19.64483563 160.93463612 18.89992046 C157.68396671 17.17402305 155.76349706 16.99254674 152.10832214 16.97627258 C150.9150531 16.96373444 149.72178406 16.95119629 148.49235535 16.9382782 C147.19187759 16.93971329 145.89139984 16.94114838 144.55151367 16.94262695 C143.16162241 16.93360622 141.77173912 16.92327823 140.38186646 16.91174316 C136.61573266 16.88418329 132.84974985 16.87489008 129.08352828 16.86888909 C125.14500565 16.85950275 121.20659568 16.83329916 117.2681427 16.80888367 C109.81327045 16.76522209 102.35842008 16.73667306 94.90345889 16.71356028 C86.41492693 16.68650676 77.92650832 16.64259536 69.4380573 16.59727156 C51.97959657 16.5044302 34.52111135 16.43274716 17.0625 16.375 C16.7325 17.695 16.4025 19.015 16.0625 20.375 C16.7225 20.705 17.3825 21.035 18.0625 21.375 C17.2890625 22.3959375 17.2890625 22.3959375 16.5 23.4375 C13.5544155 29.4567379 16.88203073 36.54503039 18.78515625 42.6328125 C19.32884741 44.41013442 19.87246502 46.18747884 20.41601562 47.96484375 C21.27202374 50.74139238 22.13033407 53.51721047 22.99047852 56.29248047 C23.82372212 58.98749905 24.64853953 61.68499154 25.47265625 64.3828125 C25.8616787 65.62359055 25.8616787 65.62359055 26.25856018 66.88943481 C27.45601727 70.81925945 28.41001739 74.21422614 28.0625 78.375 C26.33971353 75.19194322 25.26114685 72.0184584 24.23071289 68.55249023 C23.88017349 67.38125107 23.52963409 66.2100119 23.16847229 65.00328064 C22.794478 63.74278397 22.4204837 62.48228729 22.03515625 61.18359375 C21.64222749 59.8735258 21.24869934 58.56363749 20.854599 57.25392151 C19.18445685 51.70148446 17.52092417 46.14711167 15.86938477 40.58911133 C14.85727512 37.18445537 13.83587515 33.78270431 12.80853081 30.38261604 C12.23052062 28.45975605 11.66292271 26.53377609 11.09547424 24.60777283 C10.74178268 23.43968582 10.38809113 22.27159882 10.02368164 21.06811523 C9.71660782 20.03871323 9.409534 19.00931122 9.09315491 17.94871521 C8.06147452 15.37243921 7.23688256 14.06342965 5.0625 12.375 C2.97754946 11.90621441 2.97754946 11.90621441 0.68359375 11.93359375 C-0.57420898 11.89395508 -0.57420898 11.89395508 -1.85742188 11.85351562 C-2.72947266 11.83998047 -3.60152344 11.82644531 -4.5 11.8125 C-6.23066061 11.77811601 -7.96118373 11.73554038 -9.69140625 11.68359375 C-10.84104858 11.66510376 -10.84104858 11.66510376 -12.01391602 11.64624023 C-13.9375 11.375 -13.9375 11.375 -15.9375 9.375 C-16.1875 5.875 -16.1875 5.875 -15.9375 2.375 C-12.08734696 -1.47515304 -5.1905211 0.00512644 0 0 Z " fill="#F9C483" transform="translate(26.9375,51.625)"/>
<path d="M0 0 C0.33 0 0.66 0 1 0 C0.22008985 7.17517334 -0.84889214 14.36489288 -5.5 20.0625 C-9.98404288 23.53763323 -14.35390174 23.16851914 -19.78588867 23.20532227 C-20.68365524 23.21522186 -21.58142181 23.22512146 -22.50639343 23.23532104 C-25.47689162 23.26693456 -28.4474058 23.29169295 -31.41796875 23.31640625 C-33.47634804 23.3369759 -35.53472311 23.35797238 -37.59309387 23.37937927 C-43.01326072 23.43459878 -48.43346568 23.48400863 -53.85369873 23.53222656 C-59.38362016 23.58244243 -64.91348617 23.63812806 -70.44335938 23.69335938 C-81.29552559 23.80093949 -92.1477399 23.90238483 -103 24 C-101.48134786 28.29888613 -101.48134786 28.29888613 -99 32 C-96.27746438 32.10921436 -93.5793647 32.1542299 -90.85595703 32.15771484 C-89.575495 32.16533592 -89.575495 32.16533592 -88.26916504 32.17311096 C-86.40902876 32.18383879 -84.54887937 32.19244944 -82.68872452 32.19923019 C-79.7473186 32.21097942 -76.80606217 32.23042156 -73.86471558 32.25234985 C-65.49954174 32.31410154 -57.13438209 32.36804876 -48.76904297 32.40136719 C-43.65845715 32.42227447 -38.54814157 32.4575475 -33.43770981 32.50212479 C-31.48646088 32.5163186 -29.53516411 32.52501481 -27.58386612 32.52817917 C-24.85656584 32.53306992 -22.12998661 32.55618033 -19.40283203 32.58349609 C-18.18706985 32.57898689 -18.18706985 32.57898689 -16.94674683 32.5743866 C-11.54444618 32.65502942 -11.54444618 32.65502942 -8.95529175 34.29556274 C-7.33356327 37.1890604 -8.35316601 39.88343625 -9 43 C-10.7015625 43.185625 -10.7015625 43.185625 -12.4375 43.375 C-13.613125 43.58125 -14.78875 43.7875 -16 44 C-16.495 44.99 -16.495 44.99 -17 46 C-16.67 44.68 -16.34 43.36 -16 42 C-14.02 42 -12.04 42 -10 42 C-10.495 38.535 -10.495 38.535 -11 35 C-12.63705147 35.00999275 -12.63705147 35.00999275 -14.30717468 35.02018738 C-24.59217056 35.08100188 -34.87712995 35.12597431 -45.16226482 35.15543652 C-50.44996827 35.17109253 -55.73752657 35.1923298 -61.02514648 35.22631836 C-66.1279779 35.25891385 -71.23066969 35.2768535 -76.33359718 35.28463173 C-78.28045665 35.29017488 -80.22730847 35.30099925 -82.17410851 35.31719017 C-84.90098969 35.33896687 -87.6272939 35.34196681 -90.35424805 35.34057617 C-91.15913666 35.351362 -91.96402527 35.36214783 -92.79330444 35.3732605 C-97.38451856 35.34792441 -100.30764308 34.78619462 -104 32 C-106.13875077 33.01760473 -106.13875077 33.01760473 -108 35 C-108.33380814 38.62563814 -108.33380814 38.62563814 -108 42 C-105.36 42 -102.72 42 -100 42 C-99.01 44.64 -98.02 47.28 -97 50 C-96.773125 49.401875 -96.54625 48.80375 -96.3125 48.1875 C-94.59193332 45.31988887 -93.03468112 44.37940051 -90 43 C-86.875 42.625 -86.875 42.625 -84 43 C-82.125 44.5 -82.125 44.5 -81 46 C-81.495 46.99 -81.495 46.99 -82 48 C-82.66 47.34 -83.32 46.68 -84 46 C-88.14509433 45.71397838 -88.14509433 45.71397838 -92 47 C-92.04241723 49.33294775 -92.04092937 51.66702567 -92 54 C-90.83697846 55.38528649 -90.83697846 55.38528649 -87.625 55.1875 C-83.90324609 55.30453853 -83.90324609 55.30453853 -81 53 C-82.875 56.875 -82.875 56.875 -84 58 C-85.51165654 58.39148761 -87.03469632 58.73972457 -88.5625 59.0625 C-89.38878906 59.23910156 -90.21507813 59.41570312 -91.06640625 59.59765625 C-91.70449219 59.73042969 -92.34257813 59.86320312 -93 60 C-93 60.99 -93 61.98 -93 63 C-86.01370081 63.50604984 -81.79799884 63.0333905 -76 59 C-77 62 -77 62 -79.1875 63.625 C-83.80050903 65.88024886 -86.59895577 66.44243502 -91.5625 64.875 C-96.36369108 62.2561685 -99.9981382 59.16759674 -102 54 C-101.9765625 51.421875 -101.9765625 51.421875 -101.625 48.75 C-101.51414062 47.85796875 -101.40328125 46.9659375 -101.2890625 46.046875 C-101.19367188 45.37140625 -101.09828125 44.6959375 -101 44 C-101.928125 44.061875 -102.85625 44.12375 -103.8125 44.1875 C-107 44 -107 44 -108.56933594 42.85327148 C-111.78470102 38.6881117 -112.75082909 33.03385782 -114.25 28.0625 C-114.62640625 26.86947266 -115.0028125 25.67644531 -115.390625 24.44726562 C-115.74125 23.30064453 -116.091875 22.15402344 -116.453125 20.97265625 C-116.77442383 19.92343994 -117.09572266 18.87422363 -117.42675781 17.79321289 C-117.99267018 15.03571568 -117.95612133 13.60664337 -117 11 C-116.16142312 13.60258324 -115.32896656 16.20685647 -114.5 18.8125 C-114.26152344 19.55048828 -114.02304688 20.28847656 -113.77734375 21.04882812 C-112.80059864 24.13255196 -112 26.74495809 -112 30 C-111.01 30 -110.02 30 -109 30 C-108.67 29.34 -108.34 28.68 -108 28 C-108 28.66 -108 29.32 -108 30 C-107.01 30 -106.02 30 -105 30 C-105 27.03 -105 24.06 -105 21 C-103.2092807 20.99786247 -103.2092807 20.99786247 -101.38238525 20.99568176 C-90.14030917 20.97902349 -78.8985956 20.93628561 -67.65671158 20.86790943 C-61.87688237 20.83359596 -56.09731871 20.80852264 -50.31738281 20.80444336 C-44.74098696 20.80016981 -39.16519058 20.77178511 -33.58898163 20.72656822 C-31.45993286 20.71356305 -29.33081245 20.70929616 -27.20172882 20.71384621 C-24.22269185 20.71873065 -21.24542158 20.69275521 -18.26660156 20.65942383 C-16.94166687 20.67236229 -16.94166687 20.67236229 -15.58996582 20.68556213 C-10.49074906 20.61714341 -10.49074906 20.61714341 -6.47790527 17.58032227 C-5.25552428 15.44612804 -4.2471436 13.56726428 -3.515625 11.23046875 C-3.19658203 10.23950195 -3.19658203 10.23950195 -2.87109375 9.22851562 C-2.66613281 8.55498047 -2.46117187 7.88144531 -2.25 7.1875 C-1.91935547 6.14819336 -1.91935547 6.14819336 -1.58203125 5.08789062 C-1.04496973 3.39497932 -0.52111292 1.69788842 0 0 Z " fill="#F7AF57" transform="translate(176,128)"/>
<path d="M0 0 C4.29 0 8.58 0 13 0 C12.34 1.65 11.68 3.3 11 5 C12.32 5.33 13.64 5.66 15 6 C13.02 6.33 11.04 6.66 9 7 C9.2475 7.7425 9.2475 7.7425 9.5 8.5 C10.57032698 13.85163489 10.79769128 17.54215042 8.1875 22.3125 C7.1046875 23.6428125 7.1046875 23.6428125 6 25 C5.5875 25.5775 5.175 26.155 4.75 26.75 C1.76143245 28.88469111 -1.39433963 29.73601415 -5 30 C-10.60823726 29.02062033 -14.37704275 26.39146333 -18 22 C-18.96070434 19.11788698 -19.10581883 17.30149956 -19.0625 14.3125 C-19.05347656 13.50425781 -19.04445312 12.69601563 -19.03515625 11.86328125 C-19.02355469 11.24839844 -19.01195312 10.63351563 -19 10 C-18.67 10 -18.34 10 -18 10 C-17.90203125 10.74765625 -17.8040625 11.4953125 -17.703125 12.265625 C-16.87456691 18.32686441 -16.87456691 18.32686441 -14.0625 23.625 C-10.95340286 25.69773142 -8.45676574 26.12224206 -4.8125 26.0625 C-3.554375 26.041875 -2.29625 26.02125 -1 26 C-1.33 25.01 -1.66 24.02 -2 23 C-3.134375 22.690625 -4.26875 22.38125 -5.4375 22.0625 C-9 21 -9 21 -10.4375 18.875 C-10.623125 18.25625 -10.80875 17.6375 -11 17 C-10.01 17.66 -9.02 18.32 -8 19 C-5.66800612 19.07905064 -3.33167378 19.08798769 -1 19 C0.21297649 16.7193293 0.21297649 16.7193293 1 14 C0.23396041 11.7142289 0.23396041 11.7142289 -1 10 C-6.32170494 9.70437633 -6.32170494 9.70437633 -11 12 C-10.375 10.125 -10.375 10.125 -9 8 C-6.2520429 6.85501787 -3.989803 6 -1 6 C-0.67 4.02 -0.34 2.04 0 0 Z " fill="#F8A137" transform="translate(151,164)"/>
<path d="M0 0 C0.33 0 0.66 0 1 0 C0.22008985 7.17517334 -0.84889214 14.36489288 -5.5 20.0625 C-9.98404288 23.53763323 -14.35390174 23.16851914 -19.78588867 23.20532227 C-20.68365524 23.21522186 -21.58142181 23.22512146 -22.50639343 23.23532104 C-25.47689162 23.26693456 -28.4474058 23.29169295 -31.41796875 23.31640625 C-33.47634804 23.3369759 -35.53472311 23.35797238 -37.59309387 23.37937927 C-43.01326072 23.43459878 -48.43346568 23.48400863 -53.85369873 23.53222656 C-59.38362016 23.58244243 -64.91348617 23.63812806 -70.44335938 23.69335938 C-81.29552559 23.80093949 -92.1477399 23.90238483 -103 24 C-102.67 25.98 -102.34 27.96 -102 30 C-102.99 29.34 -103.98 28.68 -105 28 C-105.1875 24.375 -105.1875 24.375 -105 21 C-103.2092807 20.99786247 -103.2092807 20.99786247 -101.38238525 20.99568176 C-90.14030917 20.97902349 -78.8985956 20.93628561 -67.65671158 20.86790943 C-61.87688237 20.83359596 -56.09731871 20.80852264 -50.31738281 20.80444336 C-44.74098696 20.80016981 -39.16519058 20.77178511 -33.58898163 20.72656822 C-31.45993286 20.71356305 -29.33081245 20.70929616 -27.20172882 20.71384621 C-24.22269185 20.71873065 -21.24542158 20.69275521 -18.26660156 20.65942383 C-16.94166687 20.67236229 -16.94166687 20.67236229 -15.58996582 20.68556213 C-10.49074906 20.61714341 -10.49074906 20.61714341 -6.47790527 17.58032227 C-5.25552428 15.44612804 -4.2471436 13.56726428 -3.515625 11.23046875 C-3.19658203 10.23950195 -3.19658203 10.23950195 -2.87109375 9.22851562 C-2.66613281 8.55498047 -2.46117187 7.88144531 -2.25 7.1875 C-1.91935547 6.14819336 -1.91935547 6.14819336 -1.58203125 5.08789062 C-1.04496973 3.39497932 -0.52111292 1.69788842 0 0 Z " fill="#FAEFDD" transform="translate(176,128)"/>
<path d="M0 0 C1.485 0.99 1.485 0.99 3 2 C5.82254102 2.19802852 8.54796153 2.28016718 11.37109375 2.27124023 C12.65199387 2.27908035 12.65199387 2.27908035 13.95877075 2.28707886 C15.81340699 2.29732265 17.668072 2.30309992 19.5227356 2.30496025 C22.45596819 2.30861677 25.38886053 2.32532277 28.32202148 2.34571838 C36.66155688 2.40120649 45.00114229 2.43185644 53.34082031 2.45629883 C58.44072502 2.47214832 63.54038767 2.50233816 68.64016724 2.54106331 C70.58584021 2.55273498 72.53155642 2.55864385 74.4772644 2.55874443 C77.19473649 2.55893587 79.91153798 2.57715661 82.62890625 2.59936523 C83.43627228 2.59478806 84.24363831 2.59021088 85.07546997 2.585495 C90.45661299 2.65563002 90.45661299 2.65563002 93.04272461 4.29457092 C94.66708199 7.18843652 93.64712894 9.88201513 93 13 C91.865625 13.12375 90.73125 13.2475 89.5625 13.375 C88.386875 13.58125 87.21125 13.7875 86 14 C85.67 14.66 85.34 15.32 85 16 C85.33 14.68 85.66 13.36 86 12 C87.98 12 89.96 12 92 12 C91.505 8.535 91.505 8.535 91 5 C89.90419113 5.00666183 88.80838226 5.01332367 87.67936707 5.02018738 C77.36431565 5.08094011 67.04930041 5.12594454 56.73411083 5.15543652 C51.43065638 5.17110823 46.12734609 5.19237401 40.82397461 5.22631836 C35.70818472 5.25885805 30.5925337 5.27684167 25.47664833 5.28463173 C23.52255377 5.29018494 21.568467 5.30102868 19.61443138 5.31719017 C16.88235279 5.33889283 14.15085176 5.34196994 11.41870117 5.34057617 C10.60662201 5.351362 9.79454285 5.36214783 8.95785522 5.3732605 C3.49775836 5.34301833 3.49775836 5.34301833 0.97383118 3.60371399 C0 2 0 2 0 0 Z " fill="#F3DCC0" transform="translate(74,158)"/>
<path d="M0 0 C4.25676762 0.0546518 6.94723214 0.34756764 10.25 3.25 C13.77139964 7.49996508 13.51853954 10.96872247 13.25 16.25 C16.37498166 16.5873846 16.37498166 16.5873846 18.4375 14.25 C19.035625 13.59 19.63375 12.93 20.25 12.25 C18.80797524 16.40151338 16.7489562 19.54978445 14.125 23.0625 C13.40054688 24.03832031 12.67609375 25.01414062 11.9296875 26.01953125 C11.37539062 26.75558594 10.82109375 27.49164063 10.25 28.25 C9.59 27.59 8.93 26.93 8.25 26.25 C5.98334463 25.89955375 5.98334463 25.89955375 3.4375 25.8125 C-0.69484422 25.48956717 -3.38344574 24.83102493 -6.75 22.25 C-6.42 21.59 -6.09 20.93 -5.75 20.25 C-4.76 20.7759375 -4.76 20.7759375 -3.75 21.3125 C0.41498975 22.6140593 2.9700396 22.14741105 7.25 21.25 C10.14495697 19.56905724 10.24329552 18.27490237 11.125 15 C11.27299594 10.56012186 10.43648891 8.09520464 8.25 4.25 C5.26147869 2.26403819 3.20571695 2.04757278 -0.3125 2.5 C-1.07691406 2.58765625 -1.84132813 2.6753125 -2.62890625 2.765625 C-5.03412893 3.18264059 -5.03412893 3.18264059 -7.75 5.25 C-5.56528199 0.73491612 -5.09287937 0.09040614 0 0 Z " fill="#F6D4A9" transform="translate(100.75,86.75)"/>
<path d="M0 0 C1.875 1.5 1.875 1.5 3 3 C2.67 3.66 2.34 4.32 2 5 C1.34 4.34 0.68 3.68 0 3 C-4.14509433 2.71397838 -4.14509433 2.71397838 -8 4 C-8.04241723 6.33294775 -8.04092937 8.66702567 -8 11 C-6.83697846 12.38528649 -6.83697846 12.38528649 -3.625 12.1875 C0.09675391 12.30453853 0.09675391 12.30453853 3 10 C1.125 13.875 1.125 13.875 0 15 C-1.67884238 15.3931648 -3.36850045 15.74085452 -5.0625 16.0625 C-5.98160156 16.23910156 -6.90070313 16.41570312 -7.84765625 16.59765625 C-8.91306641 16.79681641 -8.91306641 16.79681641 -10 17 C-11.31113198 12.36805013 -11.7182346 7.77462775 -11 3 C-7.7380206 -0.2619794 -4.49028243 -0.58568901 0 0 Z M-15 15 C-13.02 15.99 -11.04 16.98 -9 18 C-9 18.66 -9 19.32 -9 20 C-2.01370081 20.50604984 2.20200116 20.0333905 8 16 C7 19 7 19 4.8125 20.625 C1.67112425 22.1607837 -0.49825062 22.85993002 -4 23 C-8.10778822 21.5835213 -11.7798572 19.96253137 -15 17 C-15 16.34 -15 15.68 -15 15 Z " fill="#F5D2A6" transform="translate(92,171)"/>
<path d="M0 0 C0 4.28743372 -2.28112757 6.39035464 -4.78515625 9.74609375 C-6.24095699 11.91574949 -6.24095699 11.91574949 -5.68359375 14.28515625 C-5.45800781 14.85105469 -5.23242188 15.41695312 -5 16 C-4.34 15.34 -3.68 14.68 -3 14 C4.13669065 13.30935252 4.13669065 13.30935252 7.5 16 C7.995 16.66 8.49 17.32 9 18 C8.484375 17.835 7.96875 17.67 7.4375 17.5 C3.42901348 16.67774635 -0.39144592 16.47830678 -4.3125 17.75 C-7.03375884 19.76574729 -7.78775665 21.72653989 -8.33984375 25.0390625 C-8.59556357 27.02176684 -8.80107942 29.0107942 -9 31 C-9.33 31 -9.66 31 -10 31 C-10.33 29.02 -10.66 27.04 -11 25 C-12.65 25 -14.3 25 -16 25 C-14.69629642 21.44978827 -13.14476397 18.49866942 -10.99609375 15.390625 C-10.42052734 14.55402344 -9.84496094 13.71742187 -9.25195312 12.85546875 C-8.65318359 11.99566406 -8.05441406 11.13585937 -7.4375 10.25 C-6.83486328 9.37472656 -6.23222656 8.49945313 -5.61132812 7.59765625 C-1.17569314 1.17569314 -1.17569314 1.17569314 0 0 Z " fill="#F8C990" transform="translate(132,93)"/>
<path d="M0 0 C2.375 0.3125 2.375 0.3125 5 1 C6.99825961 3.99738941 7.27550398 4.63347508 7.25 8 C7.25515625 8.680625 7.2603125 9.36125 7.265625 10.0625 C7 12 7 12 5 15 C2.5 15.3125 2.5 15.3125 0 15 C-2 13 -2 13 -2.265625 10.72265625 C-2.26046875 9.84480469 -2.2553125 8.96695313 -2.25 8.0625 C-2.25515625 7.18722656 -2.2603125 6.31195313 -2.265625 5.41015625 C-2 3 -2 3 0 0 Z " fill="#F8B464" transform="translate(100,91)"/>
<path d="M0 0 C2.86724686 0.57344937 3.8614515 0.8614515 6 3 C6.50407331 6.03616249 6.46437239 8.95998078 6 12 C4 14.5625 4 14.5625 2 16 C-1.875 14.25 -1.875 14.25 -3 12 C-3.46601942 4.77669903 -3.46601942 4.77669903 -1.5 1.5 C-1.005 1.005 -0.51 0.51 0 0 Z " fill="#F7B360" transform="translate(132,112)"/>
<path d="M0 0 C0.33 0 0.66 0 1 0 C1.309375 0.94875 1.61875 1.8975 1.9375 2.875 C2.87394742 5.86080408 2.87394742 5.86080408 4 8 C4.99 8 5.98 8 7 8 C5.68224613 11.95326161 3.88390641 12.94660409 0.41015625 15.05859375 C-3.76773963 16.69047853 -7.7032426 15.8892879 -12 15 C-12.33 14.01 -12.66 13.02 -13 12 C-10 10 -10 10 -6.4375 9.5 C-2.9428808 9.34152243 -2.9428808 9.34152243 -1 7 C-0.59952556 4.67724823 -0.2602896 2.34260643 0 0 Z " fill="#F89824" transform="translate(95,176)"/>
<path d="M0 0 C18.81 0 37.62 0 57 0 C57 0.33 57 0.66 57 1 C38.52 1 20.04 1 1 1 C1.66 2.65 2.32 4.3 3 6 C2.67 6.99 2.34 7.98 2 9 C1.34 8.34 0.68 7.68 0 7 C0 4.69 0 2.38 0 0 Z " fill="#F5D096" transform="translate(71,149)"/>
<path d="M0 0 C2.11434065 3.17151097 3.01955937 5.86432861 4.125 9.5 C4.47820313 10.6446875 4.83140625 11.789375 5.1953125 12.96875 C6 16 6 16 6 19 C6.99 19 7.98 19 9 19 C9.33 18.34 9.66 17.68 10 17 C10 17.66 10 18.32 10 19 C10.99 19 11.98 19 13 19 C13.33 18.34 13.66 17.68 14 17 C14.66 18.32 15.32 19.64 16 21 C15.030625 21.2475 14.06125 21.495 13.0625 21.75 C12.051875 22.1625 11.04125 22.575 10 23 C9.03122943 25.03243548 9.03122943 25.03243548 9 27 C8.34 27 7.68 27 7 27 C5.82419832 23.25280224 4.66095767 19.50182075 3.5 15.75 C3.16613281 14.68652344 2.83226562 13.62304688 2.48828125 12.52734375 C2.17246094 11.50253906 1.85664062 10.47773438 1.53125 9.421875 C1.23798828 8.47924805 0.94472656 7.53662109 0.64257812 6.56542969 C0 4 0 4 0 0 Z " fill="#F9BC72" transform="translate(58,139)"/>
<path d="M0 0 C0.33 0 0.66 0 1 0 C1.09796875 0.74765625 1.1959375 1.4953125 1.296875 2.265625 C2.12543309 8.32686441 2.12543309 8.32686441 4.9375 13.625 C9.52477396 16.68318264 14.67402112 16.75625682 20 16 C22.76044495 14.60514619 24.64055622 13.05169024 27 11 C25.6979284 13.90462126 24.5863129 16.10337054 22 18 C16.54631087 20.033579 13.18444481 20.43097949 7.828125 18.05859375 C3.90218345 15.7852387 1.42959317 13.2887795 0 9 C-0.06740865 7.43881572 -0.08514456 5.8749748 -0.0625 4.3125 C-0.05347656 3.50425781 -0.04445312 2.69601563 -0.03515625 1.86328125 C-0.02355469 1.24839844 -0.01195312 0.63351563 0 0 Z " fill="#F5DEC2" transform="translate(132,174)"/>
<path d="M0 0 C0.66 0 1.32 0 2 0 C4.95785003 4.99361726 4.98913424 10.37957053 4 16 C1.72615108 19.35202653 -1.11265043 20.59820097 -5 21.42578125 C-10.30989261 21.78876219 -13.65651592 19.89565606 -18 17 C-17.67 15.68 -17.34 14.36 -17 13 C-16.195625 14.2065625 -16.195625 14.2065625 -15.375 15.4375 C-13.21101834 18.18912007 -13.21101834 18.18912007 -10.125 18.9375 C-6.51043637 19.00979127 -4.25245383 18.59008854 -1 17 C1.22821277 14.62803157 2.00552919 13.04870294 1.98828125 9.77734375 C1.64671297 6.33366354 1.09672078 3.29016233 0 0 Z " fill="#F7E1C5" transform="translate(141,111)"/>
<path d="M0 0 C0 5.46981092 -3.37827803 10.06334568 -7 14 C-10.19203281 14.92932601 -12.77901322 14.72307867 -16 14 C-15.39305845 10.84669446 -14.3583335 8.81111133 -12.4375 6.25 C-11.98246094 5.63640625 -11.52742188 5.0228125 -11.05859375 4.390625 C-10.70925781 3.93171875 -10.35992187 3.4728125 -10 3 C-10 6.57575896 -11.08840607 8.05295935 -13 11 C-10.68309759 11.46092705 -10.68309759 11.46092705 -8 11 C-5.64391863 8.59414208 -5.64391863 8.59414208 -3.6875 5.5 C-2.99011719 4.4790625 -2.29273437 3.458125 -1.57421875 2.40625 C-1.05472656 1.6121875 -0.53523438 0.818125 0 0 Z " fill="#F9E6CE" transform="translate(115,118)"/>
<path d="M0 0 C2.5 2 2.5 2 4 4 C3.484375 3.835 2.96875 3.67 2.4375 3.5 C-2.79952642 2.42573817 -7.17805885 2.66208914 -12 5 C-12 3 -12 3 -10.5 1.375 C-7.00338952 -0.54813577 -3.91000548 -0.7611691 0 0 Z " fill="#F5DBBC" transform="translate(137,107)"/>
<path d="M0 0 C2.97 0 5.94 0 9 0 C8.67 1.98 8.34 3.96 8 6 C7.01 6 6.02 6 5 6 C5.33 5.01 5.66 4.02 6 3 C2.41672247 1.99782936 2.41672247 1.99782936 -1 3 C-0.67 2.01 -0.34 1.02 0 0 Z " fill="#F8DAAF" transform="translate(128,87)"/>
<path d="M0 0 C1.4370809 -0.05422947 2.87475462 -0.09289723 4.3125 -0.125 C5.11300781 -0.14820312 5.91351563 -0.17140625 6.73828125 -0.1953125 C9 0 9 0 12 2 C10.95199219 2.09087891 10.95199219 2.09087891 9.8828125 2.18359375 C8.97273438 2.26738281 8.06265625 2.35117188 7.125 2.4375 C6.22007813 2.51871094 5.31515625 2.59992188 4.3828125 2.68359375 C1.98889139 2.86989285 1.98889139 2.86989285 0 4 C0 2.68 0 1.36 0 0 Z " fill="#F6992D" transform="translate(94,85)"/>
<path d="M0 0 C0.8125 1.6875 0.8125 1.6875 1 4 C-1.4375 6.75 -1.4375 6.75 -4 9 C-4 5.00095031 -2.27413033 3.19799578 0 0 Z " fill="#F5D1A3" transform="translate(121,109)"/>
<path d="M0 0 C0 3.99904969 -1.72586967 5.80200422 -4 9 C-5.37245106 6.25509788 -4.93580311 4.87939419 -4 2 C-1.9375 0.6875 -1.9375 0.6875 0 0 Z " fill="#F6CA99" transform="translate(126,90)"/>
<path d="M0 0 C0.33 0.66 0.66 1.32 1 2 C1.66 2.33 2.32 2.66 3 3 C-0.20015856 4.06671952 -1.88544294 3.94845472 -5.1875 3.5625 C-6.08855469 3.46066406 -6.98960938 3.35882813 -7.91796875 3.25390625 C-8.60503906 3.17011719 -9.29210937 3.08632812 -10 3 C-10 2.67 -10 2.34 -10 2 C-9.04287109 1.90912109 -9.04287109 1.90912109 -8.06640625 1.81640625 C-6.82697266 1.69072266 -6.82697266 1.69072266 -5.5625 1.5625 C-4.73878906 1.48128906 -3.91507812 1.40007812 -3.06640625 1.31640625 C-1.01337975 1.21069185 -1.01337975 1.21069185 0 0 Z " fill="#F79E35" transform="translate(109,109)"/>
<path d="M0 0 C0.66 0.99 1.32 1.98 2 3 C1.125 6.1875 1.125 6.1875 0 9 C-0.33 9 -0.66 9 -1 9 C-1.625 5.625 -1.625 5.625 -2 2 C-1.34 1.34 -0.68 0.68 0 0 Z " fill="#F3B058" transform="translate(124,107)"/>
<path d="M0 0 C0.33 0.99 0.66 1.98 1 3 C0.34 3.66 -0.32 4.32 -1 5 C-0.34 5.66 0.32 6.32 1 7 C0.01 7.66 -0.98 8.32 -2 9 C-2.6875 6.75 -2.6875 6.75 -3 4 C-1.5625 1.6875 -1.5625 1.6875 0 0 Z " fill="#F6951D" transform="translate(128,101)"/>
</svg>
